<svg xmlns="http://www.w3.org/2000/svg" data-name="Layer 1" viewBox="0 0 2000 2000" id="contact-us"><polygon fill="#ffeadc" points="214.71 1428.72 250.91 697.29 701.1 391.82 1727.34 563.04 1800 1413.42 1143.35 1608.18 214.71 1428.72"></polygon><rect width="252.01" height="25.96" x="331.76" y="546.16" stroke="#000" stroke-miterlimit="10" stroke-width="5" rx="12.69"></rect><rect width="252.01" height="25.96" x="1539.5" y="1045.28" stroke="#000" stroke-miterlimit="10" stroke-width="5" rx="12.69"></rect><ellipse cx="358.49" cy="857.32" stroke="#000" stroke-miterlimit="10" stroke-width="5" rx="24.77" ry="25"></ellipse><ellipse cx="951.2" cy="540.66" stroke="#000" stroke-miterlimit="10" stroke-width="5" rx="17.75" ry="17.91"></ellipse><ellipse cx="641.98" cy="426.13" stroke="#000" stroke-miterlimit="10" stroke-width="5" rx="8.87" ry="8.96"></ellipse><ellipse cx="1695.22" cy="792.29" stroke="#000" stroke-miterlimit="10" stroke-width="5" rx="8.87" ry="8.96"></ellipse><ellipse cx="229.06" cy="1157.75" stroke="#000" stroke-miterlimit="10" stroke-width="5" rx="8.87" ry="8.96"></ellipse><ellipse cx="1508.77" cy="522.32" stroke="#000" stroke-miterlimit="10" stroke-width="5" rx="33.74" ry="34.05"></ellipse><path fill="#0061fa" d="M1183.21,979c17.13,8.67,156.83,41.26,195,58.55s60,29.93,75.78,61.85,32.09,107.74,36.25,130.8l-28.75,4.83-3,186.86H863l4.61-189.84s10.13-47.79,27-70.95c24.38-33.43,61.18-69.75,98.18-93.62a617.7,617.7,0,0,1,74.5-41.24Z"></path><polygon fill="#ff2b4a" points="1095.01 1130.47 1068.39 1275.68 1124.23 1277.67 1095.01 1130.47"></polygon><path fill="none" stroke="#000" stroke-linecap="round" stroke-linejoin="round" stroke-width="5" d="M1799.3,966.25s-7.27-83.62-54.15-83.62-74.37,83.62-34,83.62,26.27-85.83-22.64-85.83c-45.67,0-57.59,85.83-38.39,85.83s13.34-49.3-14.55-49.3-31.12,49.3-31.12,49.3H1406.32"></path><polygon fill="#0043ae" points="1301.16 1213.38 1310.58 1259.3 1334.67 1255.35 1352.56 1305.16 1303.36 1308.27 1301.16 1213.38"></polygon><path fill="none" stroke="#000" stroke-linecap="round" stroke-linejoin="round" stroke-width="5" d="M200,995.59s5.18-63.15,41.17-63.15c33.6,0,42.37,63.15,28.25,63.15s-9.82-36.27,10.7-36.27S303,995.59,303,995.59H418"></path><path fill="#0043ae" d="M973,1367.85s15-84.88,26.45-139.22l-19.82,188.63H964.67Z"></path><path fill="#feb0a3" d="M933.65,1363.08c9.48-23.49,36.91-76.37,58.61-83.4s67.6-16.12,117-11.32,224.48,17.93,224.48,17.93l-7.29-29.62,153.71-24.59c2.23,18.39,6.68,29.05,9.46,50.93,16.3,128.36-17,172.77-94.78,164.18s-317.26-87.39-317.26-87.39l-7,26.26s29.9,2.28,29.9,12.89-16,13.89-30.43,12.88-19.45-6.57-19.45-6.57-5.87,6.24-13.94,6.65c-8.48.42-13-6.4-13-6.4s-7.73,6.32-14.72,6.32c-10.47,0-22.69-17.68-21.94-35.11s4-46.22,4-46.22-17.71,23.49-26.69,38.39-15.71,42.94-26.44,42.94S924.17,1386.57,933.65,1363.08Z"></path><path fill="none" stroke="#000" stroke-linecap="round" stroke-linejoin="round" stroke-width="4" d="M1048.06 1352.62A105.34 105.34 0 001041 1376c-.75 4.14-1.25 8.42-.38 12.53 1.13 5.36 4.45 10 7.89 14.18M1022.41 1342.71a298.42 298.42 0 00-8.78 33.16 33.28 33.28 0 00.46 12.65c1.13 5.36 4.45 10 7.89 14.18"></path><path d="M1148.91 1384.63a1.68 1.68 0 01-1.1-2.1c2.29-7.58 11.18-39.66 15.27-57.88 4-18 6.66-44.57 7.29-51.36a1.67 1.67 0 011.78-1.51l12.2.89a1.68 1.68 0 011.54 1.86c-.92 8.27-4.94 44-7.91 57.15s-13.6 47.46-16 55.23a1.65 1.65 0 01-2.07 1.1zM831.47 1132.47H500.9c-15.51 0-25.42 13.7-22.12 30.59l46.43 237.86c3.29 16.89 18.55 30.59 34.06 30.59H889.83c15.52 0 25.42-13.7 22.13-30.59l-46.43-237.86C862.23 1146.17 847 1132.47 831.47 1132.47z"></path><ellipse cx="695.37" cy="1281.99" fill="#fff" rx="24" ry="29.92" transform="rotate(-36.55 695.292 1281.926)"></ellipse><path d="M902,1412.33h239.61a0,0,0,0,1,0,0v19.18a0,0,0,0,1,0,0H884.91a0,0,0,0,1,0,0v-2.11A17.07,17.07,0,0,1,902,1412.33Z" transform="rotate(-180 1013.25 1421.915)"></path><line x1="457.77" x2="506.98" y1="1421.92" y2="1421.92" fill="none" stroke="#000" stroke-linecap="round" stroke-linejoin="round" stroke-width="4"></line><line x1="1490.29" x2="1539.5" y1="1421.92" y2="1421.92" fill="none" stroke="#000" stroke-linecap="round" stroke-linejoin="round" stroke-width="4"></line><polygon fill="#fd8571" points="1333.72 1286.29 1356.69 1289.64 1326.43 1256.67 1333.72 1286.29"></polygon><path fill="#fff" d="M1201.53 999.06a276.52 276.52 0 01-21 49.34 305.21 305.21 0 01-30.09 45.33 285.32 285.32 0 01-19.87 22.27l2.35.3c-9.5-12.83-20-24.67-32.93-34.13-1.56-1.14-3 1.47-1.51 2.59 12.49 9.13 22.68 20.67 31.85 33a1.53 1.53 0 002.36.31 294.24 294.24 0 0034.34-41.83 301.24 301.24 0 0026.75-48.08 268.92 268.92 0 0010.69-28.35c.58-1.85-2.32-2.64-2.89-.8zM1048.64 1044.16a205.47 205.47 0 0011 49.82c1.63 4.55 3.44 9 5.38 13.47.48 1.1 2 .86 2.59 0 5.31-8.35 12.62-14.84 20-21.27 1.46-1.27-.67-3.38-2.13-2.12-7.61 6.6-15 13.3-20.5 21.88h2.59a201.61 201.61 0 01-14.18-47.7q-1.17-7-1.84-14.08c-.18-1.91-3.18-1.92-3 0z"></path><path fill="#ff2b4a" d="M1096.71,1091.27l16.49,27.64a1.59,1.59,0,0,1,0,1.62l-16.51,28.26a1.56,1.56,0,0,1-2.66.07l-18.33-27.94a1.59,1.59,0,0,1,0-1.75l18.35-28A1.56,1.56,0,0,1,1096.71,1091.27Z"></path><ellipse cx="1167.94" cy="1330.88" rx="23.59" ry="23.81"></ellipse><path fill="#ff2b4a" d="M1004.74,819.84c-5.89-10.47-11.16-49.49,8.09-78s34.49-26.91,43-21.91,18.52,4.37,30.5-8.31c9.12-9.65,40.88-4.9,42,19.75,1.34,30.49,30.88,19,38.42,39s-10.13,33.08-10.13,47.59,11,19.51,12,28.08-1.4,26.17,10.38,33.55,18.86-6,23.34-1.43,2.15,27.12-13.44,30.69c-15.94,3.66-32.53-1.9-37.72-19s-10.79-46-10.79-46Z"></path><path fill="#feb0a3" d="M1148.11,878.67s23.54,83,35.1,100.36a322.77,322.77,0,0,1-37.57,55.56c-18.45,21.61-50.21,48.21-50.21,48.21s-8.79-10.3-18.65-28.26c-7.3-13.31-9.52-28.27-9.52-28.27s-1-26.54-1.93-38.44-6.6-70.19-6.6-70.19L1121,848.87l19.38-5.1Z"></path><path fill="#fd8571" d="M1121,864.34s3.77,19,5.89,28.55,4.72,26.41,4.72,26.41-43.14,48.5-66.72,63l-5.58-59Z"></path><path fill="#feb0a3" d="M1122.7,870.21s-31.75,59.64-62.87,58.69-66.64-88.51-54.07-137.69c0,0,29.55-11.42,44.32-20.62a108.8,108.8,0,0,0,24.84-21.89s2.83,17.77,12.57,30.14,18.86,25.06,18.86,25.06l6,34.91,12-5.4-5-34.58s11.31-18.41,24.52-12.69,18.54,20.62,15.4,33.31-14.77,40.29-28.92,31.72Z"></path><path fill="none" stroke="#000" stroke-linecap="round" stroke-linejoin="round" stroke-width="5" d="M1138.41,794.38s8.49,0,9.91,8.09c1.94,11.14-3.07,17.37-3.07,17.37"></path><ellipse cx="1130.02" cy="810.11" rx="34.6" ry="34.92"></ellipse><ellipse cx="1090.11" cy="858.74" rx="5.55" ry="5.6"></ellipse><path d="M1118,789c-3.63-9.4-14.55-26.76-23.82-37.12-19.57-21.84-26.58-26.82-29.83-30.12l12.93-3.15s18,15.35,26.12,24.86c9.44,11.08,24,26.79,28.86,42.53S1118,789,1118,789Z"></path><path fill="none" stroke="#000" stroke-linecap="round" stroke-linejoin="round" stroke-width="5" d="M1116.71,831.54a62,62,0,0,1-26.6,27.2"></path><polygon fill="#ff2b4a" stroke="#ff2b4a" stroke-linecap="round" stroke-linejoin="round" stroke-width="2" points="1033.84 827.41 1050.97 865.54 1028.35 881.06 1033.84 827.41"></polygon><ellipse cx="1054.91" cy="824.18" rx="3.85" ry="4.87" transform="rotate(-19.52 1055.01 824.236)"></ellipse><ellipse cx="1017.61" cy="845.02" rx="3.08" ry="3.9" transform="rotate(-19.52 1017.725 845.087)"></ellipse><ellipse cx="1066.79" cy="846.48" fill="#ff2b4a" rx="10.74" ry="10.84"></ellipse><path fill="#ff2b4a" d="M1013.85,866.26a9.07,9.07,0,0,0-1.66.16c1.9,5.86,4.06,11.58,6.42,17a9.27,9.27,0,0,0-4.76-17.17Z"></path><path fill="none" stroke="#000" stroke-linecap="round" stroke-linejoin="round" stroke-width="5" d="M1077,868.89a22.06,22.06,0,0,1-2.87,14.75,21.75,21.75,0,0,1-11.68,9.33"></path><ellipse cx="786.05" cy="874.84" fill="#fff" rx="131.15" ry="132.37"></ellipse><ellipse cx="545.44" cy="706.92" fill="#fff" rx="87.67" ry="88.48"></ellipse><ellipse cx="770.17" cy="593.84" fill="#fff" rx="69.23" ry="69.87"></ellipse><ellipse cx="1212.58" cy="594.63" fill="#fff" rx="65.06" ry="65.66"></ellipse><ellipse cx="1400.24" cy="779.42" fill="#fff" rx="108.52" ry="109.53"></ellipse><path fill="none" stroke="#000" stroke-linecap="round" stroke-linejoin="round" stroke-width="5" d="M818.33 906.82c-12.5-6.39-25.67 9.32-25.67 9.32s-12.9-11-23-31.87S756 848.34 756 848.34s20.93-2.57 21.69-16.69c.55-10.16-8.86-40.85-18.89-45.91-4.66-2.35-25.9 9.18-29.4 15.53s-4.51 16.52-2.56 32.5c1.51 12.36 8.92 38.63 23.94 65.23A231.9 231.9 0 00789 948.76c9 9.33 21.23 15 28.42 15.48s28.89-8.77 28.89-16.47C846.26 936 827.44 911.48 818.33 906.82zM754.52 792.29c-.07 16.59 6.09 33.69 15.73 43.6M810.6 911.48c4.66 15.92 15.44 30.5 27.49 37.2"></path><rect width="107.63" height="71.46" x="489.39" y="672.93" fill="none" stroke="#000" stroke-linecap="round" stroke-linejoin="round" stroke-width="5" rx="8.14"></rect><polyline fill="none" stroke="#000" stroke-linecap="round" stroke-linejoin="round" stroke-width="5" points="586.91 681.35 542.76 714.6 498.61 681.35"></polyline><path fill="none" stroke="#000" stroke-linecap="round" stroke-linejoin="round" stroke-width="5" d="M781 585.16c-6.69-4.33-16.68-2.13-21 4.61a14.39 14.39 0 00-.7 14.32 12 12 0 0012.58 6c4.43-1 7.88-4.67 9.73-8.85s2.37-8.81 2.86-13.35c.08 3.68.18 7.46 1.56 10.87s4.32 6.43 8 6.77 7.23-2.21 8.92-5.54 1.81-7.27 1.3-11c-1.9-13.73-12.73-25.77-26.09-29s-28.42 2.54-36.28 13.91a35.94 35.94 0 00-.42 39.18c7.62 11.54 22.54 17.64 36 14.7M1236.88 583.66a24.3 24.3 0 10-48.6 0c0 18.73 24.3 43.56 24.3 43.56S1236.88 601.28 1236.88 583.66z"></path><ellipse cx="1212.58" cy="581.75" fill="none" stroke="#000" stroke-linecap="round" stroke-linejoin="round" stroke-width="5" rx="9.09" ry="9.17"></ellipse><path fill="none" stroke="#000" stroke-linecap="round" stroke-linejoin="round" stroke-width="5" d="M1345.13,829.09l18.68-16.75h77.86a13.76,13.76,0,0,0,13.69-13.82V743.57a13.76,13.76,0,0,0-13.69-13.82h-82.85a13.76,13.76,0,0,0-13.69,13.82Z"></path><path fill="none" stroke="#000" stroke-linecap="round" stroke-linejoin="round" stroke-width="5" d="M1366.49,775.84c2.82,4,9,4.68,13.12,2.15s6.45-7.55,6.71-12.46a27.07,27.07,0,0,0-1.29-9.23,2.09,2.09,0,0,0-4,0,27.22,27.22,0,0,0,3.19,23.13,12.59,12.59,0,0,0,9.51,5.68c7.37.44,11.14-6.07,13.78-12,1.16-2.62,2.29-5.43,1.4-8.33a4.66,4.66,0,0,0-3.05-3.18c-3.26-.93-5.68,2.43-6.25,5.53a13,13,0,0,0,4.73,12.7c3.83,2.8,9.6,2.75,13.11-.44s4-9.34.82-12.84a10.47,10.47,0,0,0,3.82,11.39,10.26,10.26,0,0,0,11.9-.29"></path></svg>