<svg xmlns="http://www.w3.org/2000/svg" enable-background="new 0 0 34 34" viewBox="0 0 34 34" id="id-card"><path d="M30,6H4C2.3,6,1,7.3,1,9v16c0,1.7,1.3,3,3,3h26c1.7,0,3-1.3,3-3V9C33,7.3,31.7,6,30,6z M31,25c0,0.6-0.4,1-1,1H4
		c-0.6,0-1-0.4-1-1V9c0-0.6,0.4-1,1-1h26c0.6,0,1,0.4,1,1V25z"></path><path d="M14.8 15.3c.1-.4.2-.9.2-1.3 0-2.2-1.8-4-4-4s-4 1.8-4 4c0 .5.1.9.2 1.3C5.9 15.9 5 17.2 5 18.8V23c0 .6.4 1 1 1h10c.6 0 1-.4 1-1v-4.2C17 17.2 16.1 15.9 14.8 15.3zM11 12c1.1 0 2 .9 2 2s-.9 2-2 2-2-.9-2-2S9.9 12 11 12zM15 22H7v-3.2c0-.9.6-1.6 1.4-1.7.7.6 1.6 1 2.6 1s1.9-.4 2.6-1c.8.2 1.4.9 1.4 1.7V22zM28 12h-8c-.6 0-1 .4-1 1s.4 1 1 1h8c.6 0 1-.4 1-1S28.6 12 28 12zM28 16h-8c-.6 0-1 .4-1 1s.4 1 1 1h8c.6 0 1-.4 1-1S28.6 16 28 16zM28 20h-8c-.6 0-1 .4-1 1s.4 1 1 1h8c.6 0 1-.4 1-1S28.6 20 28 20z"></path></svg>