<svg xmlns="http://www.w3.org/2000/svg" enable-background="new 0 0 100 100" viewBox="0 0 100 100" id="lost"><path d="M34.134,38.996h12.368c0.079,0,0.155,0.044,0.204,0.118l3.293,5.075l3.294-5.075c0.048-0.074,0.124-0.118,0.203-0.118
	h12.367c3.664,0,6.644-3.048,6.644-6.795V20.781c0-3.747-2.98-6.794-6.644-6.794H34.243c-3.723,0-6.752,3.047-6.752,6.794v11.421
	C27.49,35.948,30.471,38.996,34.134,38.996z M29.741,20.781c0-2.463,2.062-4.544,4.502-4.544h31.621
	c2.423,0,4.393,2.038,4.393,4.544v11.421c0,2.505-1.97,4.543-4.393,4.543H53.496c-0.844,0-1.627,0.427-2.092,1.144l-1.406,2.166
	l-1.405-2.166c-0.465-0.717-1.247-1.144-2.092-1.144H34.134c-2.422,0-4.393-2.038-4.393-4.543V20.781z M26.751,76.114l-0.162-2.245
	l14.082-1.015l0.162,2.244L26.751,76.114z M56.751,66.881v-2.251h22.49l5.93-8.741l-6.089-7.261l-22.33,4.294v-2.431l-6.099-3.703
	l-0.616-0.334l-0.062,0.037l-0.074-0.04l-6.655,4.041v4.135l-21.864,2.588l-3.176,4.264l3.229,4.276h21.812v2.251H20.371
	l-5.541,7.544l5.618,7.333l22.799-3.287v6.416h2.251v-1.125v-5.616l1.126-0.162V68.007h-1.126v-2.251V54.36v-2.602l3.376-2.049
	v35.179v1.125h2.251v-1.125V49.709l3.376,2.049v1.597l-1.125,0.217v11.058H54.5v2.251v11.396v6.611v1.125h2.251V78.01l21.864-2.589
	l3.176-4.264l-3.229-4.277H56.751z M56.751,75.743v-6.611h20.691l1.537,2.035l-1.59,2.133L56.751,75.743z M56.751,62.379h-1.125
	v-6.948l1.125-0.216l21.456-4.126l4.145,4.944l-4.305,6.346H56.751z M43.246,56.894v6.612H22.556l-1.537-2.035l1.59-2.134
	L43.246,56.894z M43.246,70.258h1.125v6.903l-1.125,0.162l-21.814,3.146l-3.789-4.946l3.866-5.265H43.246z M72.503,56.141
	l0.216,2.241l-13.822,1.329l-0.215-2.241L72.503,56.141z M48.17,23.694h-2.251v-1.126c0-1.208,0.531-2.347,1.458-3.126
	c0.925-0.777,2.147-1.102,3.352-0.889c1.646,0.288,2.996,1.639,3.286,3.286c0.336,1.913-0.676,3.764-2.458,4.501
	c-0.258,0.107-0.432,0.404-0.432,0.739v1.539h-2.251v-1.539c0-1.254,0.716-2.36,1.822-2.818c0.801-0.331,1.253-1.167,1.102-2.032
	c-0.125-0.719-0.739-1.332-1.458-1.458c-0.56-0.101-1.095,0.043-1.516,0.397c-0.415,0.349-0.654,0.86-0.654,1.401V23.694z
	 M48.873,30.868h2.251v2.251c-2.251,0,0,0-2.251,0V30.868z M36.916,23.694h-2.251v-1.126c0-1.208,0.531-2.347,1.457-3.126
	c0.926-0.777,2.149-1.102,3.352-0.889c1.645,0.288,2.996,1.639,3.286,3.286c0.335,1.913-0.676,3.764-2.458,4.501
	c-0.259,0.107-0.432,0.404-0.432,0.739v1.539h-2.251v-1.539c0-1.254,0.716-2.36,1.822-2.818c0.801-0.331,1.253-1.167,1.101-2.032
	c-0.125-0.719-0.739-1.332-1.457-1.458c-0.559-0.101-1.095,0.043-1.516,0.397c-0.415,0.349-0.654,0.86-0.654,1.401V23.694z
	 M37.619,30.868h2.251v2.251c-2.251,0,0,0-2.251,0V30.868z M59.424,23.694h-2.251v-1.126c0-1.208,0.531-2.347,1.457-3.126
	c0.925-0.777,2.147-1.102,3.352-0.889c1.646,0.288,2.996,1.639,3.286,3.286c0.336,1.913-0.676,3.764-2.458,4.501
	c-0.258,0.107-0.432,0.404-0.432,0.739v1.539h-2.251v-1.539c0-1.254,0.716-2.36,1.822-2.818c0.801-0.331,1.253-1.167,1.102-2.032
	c-0.125-0.719-0.739-1.332-1.458-1.458c-0.56-0.101-1.095,0.043-1.516,0.397c-0.415,0.349-0.653,0.86-0.653,1.401V23.694z
	 M60.127,30.868h2.251v2.251c-2.251,0,0,0-2.251,0V30.868z"></path></svg>