<svg xmlns="http://www.w3.org/2000/svg" data-name="Layer 1" viewBox="0 0 250 250" id="compass"><defs><clipPath id="a"><path fill="none" d="m142.54 163.69 28.08 10.64-18.43-16.21-28.64-10.96 18.99 16.53z"></path></clipPath><clipPath id="b"><path fill="none" d="M149.13 161.54a5.16 5.16 0 0 1-4.64 0c-1.29-.74-1.29-1.94 0-2.68a5.1 5.1 0 0 1 4.64 0c1.27.74 1.28 1.94 0 2.68Z" data-name="SVGID"></path></clipPath></defs><path fill="#638bc8" d="M78.79 134.23v2.94a8.85 8.85 0 0 0 4.67 7.83l3.14 1.7 32.92-20.6-2-1.24a8.88 8.88 0 0 1-4.24-7.57v-2.13zm134.68 51.42v-.19L213.4 160H210c-3.18-5.55-8.54-10.78-16.2-15.2-26.11-15.07-68.31-15.15-94.26-.17-7.71 4.45-13.07 9.75-16.17 15.37h-3.21l.06 25.88c.31 9.64 6.82 19.26 19.61 26.64 26.12 15.08 68.32 15.15 94.27.17 12.71-7.34 19.12-16.93 19.33-26.58z"></path><ellipse cx="146.82" cy="160.32" fill="#9ed2f2" rx="38.48" ry="66.66" transform="rotate(-89.69 146.816 160.324)"></ellipse><ellipse cx="146.82" cy="160.32" fill="#638bc8" rx="34.26" ry="59.35" transform="rotate(-89.4 147.524 160.35)"></ellipse><ellipse cx="146.82" cy="160.99" fill="#606978" rx="26.27" ry="45.51" transform="rotate(-89.69 146.818 160.996)"></ellipse><path fill="#d9e1f1" d="M147.33 184.05c-10.19 0-20.4-2.25-28.18-6.74s-11.92-10.37-11.92-16.7 4.17-12.15 11.74-16.52c15.41-8.9 40.55-8.85 56.05.1 7.68 4.43 11.91 10.37 11.91 16.7s-4.17 12.15-11.74 16.52-17.75 6.64-27.86 6.64Zm-.49-45.13c-9.84 0-19.65 2.15-27.12 6.46-7.09 4.1-11 9.5-11 15.23s4 11.25 11.16 15.41c15.09 8.71 39.56 8.75 54.56.1 7.08-4.09 11-9.49 11-15.22s-4-11.25-11.17-15.41c-7.57-4.38-17.51-6.57-27.43-6.57Z"></path><path fill="#d9e1f1" d="M147.37 188c-12 0-24-2.64-33.09-7.91-9-5.2-14-12.13-14-19.54s4.88-14.2 13.75-19.32c18.09-10.44 47.61-10.39 65.8.12 9 5.19 14 12.13 14 19.54s-4.88 14.2-13.74 19.32c-9.01 5.23-20.85 7.79-32.72 7.79Zm-.58-53.09c-11.59 0-23.16 2.54-32 7.62-8.38 4.84-13 11.24-13 18s4.69 13.33 13.2 18.24c17.79 10.27 46.64 10.32 64.31.12 8.38-4.84 13-11.24 13-18s-4.69-13.33-13.2-18.24c-8.89-5.13-20.61-7.71-32.31-7.71Z"></path><path fill="#d9e1f1" d="m174.27 144.177 4.867-2.808.75 1.299-4.868 2.808zM161.52 139.373l2.526-3.542 1.221.87-2.525 3.543zM146.294 134.226l1.5-.008.02 3.84-1.5.008zM128.843 136.661l1.216-.878 2.558 3.543-1.216.878zM114.081 142.551l.75-1.299 4.893 2.825-.75 1.3zM104.45 151.273l.351-1.458 6.145 1.479-.351 1.458zM101.17 161.454l.003-1.5 6.64.012-.002 1.5zM104.55 170.164l6.13-1.456.347 1.46-6.13 1.456zM114.279 178.842l4.868-2.808.75 1.3-4.869 2.807zM129.099 184.854l2.525-3.542 1.221.87-2.525 3.542zM146.57 183.514l1.5-.008.022 3.84-1.5.008zM161.753 182.238l1.216-.878 2.558 3.543-1.216.878zM174.438 177.395l.75-1.299 4.893 2.825-.75 1.3zM183.419 170.281l.35-1.458 6.145 1.478-.35 1.459zM186.55 161.605l.002-1.5 6.64.012-.002 1.5zM183.324 151.44l6.13-1.456.346 1.46-6.13 1.455z"></path><path fill="#192135" d="m142.91 160.89 4.11 11.69 4.24-11.7-4.11-11.97-4.24 11.98z"></path><path fill="#192135" d="m146.85 158.33-20.26 2.45 20.24 2.38 20.75-2.45-20.73-2.38z"></path><path fill="#192135" d="m142.01 158.14-18.6 16.28 28.19-10.74 19.16-16.61-28.75 11.07z"></path><path fill="#f7f9fd" d="m142.54 163.69 28.08 10.64-18.43-16.21-28.64-10.96 18.99 16.53z"></path><g clip-path="url(#a)"><path fill="#e73766" d="m139.92 165.26 15.73-9.08-23.86-13.78-15.73 9.09 23.86 13.77z"></path></g><path fill="#f1bd31" d="M149.7 160.13a2.33 2.33 0 0 0-.58-.47 5.13 5.13 0 0 0-4.64 0 2.24 2.24 0 0 0-.59.48h-.37v.86a1.66 1.66 0 0 0 1 1.29 5.13 5.13 0 0 0 4.64 0 1.66 1.66 0 0 0 1-1.3v-.91Z"></path><path fill="#ffca58" d="M149.13 161.54a5.16 5.16 0 0 1-4.64 0c-1.29-.74-1.29-1.94 0-2.68a5.1 5.1 0 0 1 4.64 0c1.27.74 1.28 1.94 0 2.68Z"></path><g clip-path="url(#b)"><path fill="#e8ac22" d="M149.13 162a5.16 5.16 0 0 1-4.64 0c-1.29-.74-1.29-1.94 0-2.68a5.1 5.1 0 0 1 4.64 0c1.27.73 1.28 1.93 0 2.68Z"></path></g><path fill="#f7f9fd" d="m111.39 141.25-6.14-3.54 1.21-.7 6.63.9-4.1-2.36 1.16-.67 6.14 3.54-1.25.72-6.5-.87 4 2.31zm71.7 42.63 1.1-.77a3.17 3.17 0 0 0 1.33.26 2.61 2.61 0 0 0 1.19-.36c.4-.23.62-.45.65-.67a.48.48 0 0 0-.28-.52 1.16 1.16 0 0 0-.5-.14 2.38 2.38 0 0 0-.72.11q-.29.08-1.26.42a7.42 7.42 0 0 1-2 .46 3.29 3.29 0 0 1-1.8-.38 1.28 1.28 0 0 1-.61-.66.88.88 0 0 1 .15-.81 3.12 3.12 0 0 1 1-.82 4.93 4.93 0 0 1 2.26-.72 3.8 3.8 0 0 1 2 .42l-1.19.75a2.33 2.33 0 0 0-1-.19 2.29 2.29 0 0 0-1 .34c-.36.21-.57.41-.62.62s0 .24.18.33a1 1 0 0 0 .56.11 7.07 7.07 0 0 0 1.55-.43 13.16 13.16 0 0 1 1.79-.52 4.12 4.12 0 0 1 1.31 0 3.48 3.48 0 0 1 1.22.42 1.48 1.48 0 0 1 .69.74.9.9 0 0 1-.15.88 3.57 3.57 0 0 1-1.12.9 5.06 5.06 0 0 1-2.33.73 4.93 4.93 0 0 1-2.4-.5zm-71.93 2.19-7.62-2.69 1.28-.74 5.15 1.9-3.09-3.09 1.48-.85 5.37 1.85-3.34-3 1.26-.73 4.64 4.41-1.33.76-5.82-1.93 3.37 3.35zm73.06-43.6-6.13-3.54 4.57-2.65 1 .6-3.33 1.93 1.36.78 3.1-1.79 1 .6-3.1 1.79 1.67 1 3.45-2 1 .6z"></path><path fill="#638bc8" d="M103.18 26.08a66.68 66.68 0 0 0-55.75 103.21l93.63-91.41a66.37 66.37 0 0 0-37.88-11.8Z"></path><path fill="#9ed2f2" d="M147.89 70.52c-6.17 29.71-33.76 57.07-62.75 66.64s-47.5-6.76-41.33-36.47 33.76-57.08 62.75-66.64 47.5 6.76 41.33 36.47Z"></path><path fill="#638bc8" d="M140.53 72.65c-5.3 25.51-29 49-53.88 57.21s-40.78-5.8-35.48-31.31 29-49 53.88-57.21 40.78 5.8 35.48 31.31Z"></path><path fill="#4675ba" d="M105.05 41.34c-24.9 8.22-48.58 31.71-53.88 57.21a48 48 0 0 0-.75 4.75c7.25-23.39 29.33-44.23 52.48-51.87s38.71 4.1 36.23 26.56q.83-2.65 1.4-5.34c5.3-25.51-10.59-39.52-35.48-31.31Z"></path></svg>