<svg width="2224" height="482" viewBox="0 0 2224 482" fill="none" xmlns="http://www.w3.org/2000/svg">
<path fill-rule="evenodd" clip-rule="evenodd" d="M607.408 5.79573C599.759 18.4877 588.591 26.9107 573.016 31.7347L565.523 34.0557H490.023C419.692 34.0557 414.112 34.1807 408.523 35.8867C400.671 38.2837 394.197 42.4907 388.106 49.1557C380.869 57.0737 378.531 63.6447 378.527 76.0797C378.523 85.3667 378.761 86.5867 381.766 92.6877C385.961 101.207 393.957 109.484 401.828 113.458C405.235 115.178 408.023 117.001 408.023 117.509C408.023 118.05 394.229 118.567 374.773 118.755C343.368 119.058 341.228 119.196 336.209 121.244C314.13 130.253 304.122 154.211 313.799 174.891C317.271 182.311 324.423 190.534 330.502 194.097C339.054 199.109 343.858 199.525 393.273 199.541C445.84 199.558 443.309 198.981 433.273 208.67C419.41 222.052 405.409 229.508 391.098 231.127C387.859 231.493 312.83 231.859 224.366 231.94C71.6378 232.08 63.2448 232.179 58.0228 233.91C28.4418 243.713 18.3888 279.674 38.8118 302.629C43.9588 308.413 52.9258 313.219 62.2578 315.196C74.5628 317.802 86.8178 315.439 97.4218 308.415C102.6 304.985 104.151 305.186 101.674 308.966C99.9038 311.667 94.0598 315.937 87.0228 319.669C82.7058 321.959 81.4848 322.076 57.0228 322.556L31.5228 323.056L25.0228 326.182C13.4718 331.736 6.7378 339.148 2.4118 351.065C-2.8292 365.505 0.534798 380.296 11.8868 392.716C17.4098 398.76 23.5608 402.481 32.5228 405.2C37.6838 406.765 41.8238 406.995 62.1278 406.843C79.3108 406.715 87.5408 406.248 92.3778 405.126C110.374 400.952 126.383 386.546 132.907 368.655C134.138 365.277 135.568 362.775 136.084 363.094C136.601 363.413 137.023 365.839 137.023 368.484C137.023 387.615 148.399 418.472 162.296 437.038C186.182 468.948 223.673 485.884 257.513 480.052C280.078 476.163 293.112 469.619 308.129 454.637C317.236 445.55 319.305 442.856 322.776 435.556C328.758 422.975 330.108 417.547 330.732 403.553C331.207 392.921 330.975 389.779 329.18 382.553C325.873 369.243 319.107 356.834 309.785 346.987C300.684 337.372 292.538 331.87 281.715 328.027C277.504 326.532 274.301 324.915 274.599 324.432C274.897 323.95 291.563 323.556 311.635 323.556C353.236 323.556 356.952 324.013 371.023 330.855C377.776 334.138 381.297 336.742 388.155 343.522C397.24 352.505 397.981 353.761 411.445 382.992C416.381 393.707 421.853 401.623 430.386 410.39C444.447 424.839 459.421 433.238 480.023 438.233C485.08 439.46 495.091 439.948 525.127 440.433L563.732 441.056L570.62 444.564C576.585 447.603 578.142 449.009 582.239 455.064C592.074 469.598 601.249 476.418 614.207 478.827C626.758 481.162 643.198 475.411 653.168 465.2C659.97 458.233 666.95 446.214 669.201 437.591C674.369 417.801 668.252 392.944 654.477 377.755C644.747 367.025 634.496 361.083 619.523 357.49C612.101 355.709 607.222 355.569 552.023 355.557C494.22 355.545 484.803 355.143 478.523 352.42C475.841 351.257 477.22 351.056 491.523 350.522C506.085 349.978 508.377 349.633 517.023 346.681C540.445 338.685 557.905 321.998 565.936 299.936C570.75 286.713 571.223 280.781 571.153 234.556C571.117 211.181 571.44 184.823 571.869 175.982C572.639 160.151 572.704 159.81 576.15 153.482C583.449 140.08 597.78 135.201 611.249 141.532C616.464 143.984 619.118 146.412 632.301 160.792C640.284 169.501 643.308 172.063 648.785 174.757C654.951 177.79 656.263 178.056 665.031 178.056C673.798 178.056 675.111 177.789 681.255 174.764C692.018 169.463 697.941 160.99 700.124 147.772C701.418 139.938 700.4 133.113 696.809 125.556C695.3 122.379 684.213 110.473 659.097 85.0557C614.221 39.6427 614.165 39.5567 613.265 14.7787C612.979 6.92673 612.393 0.28473 611.963 0.0187297C611.533 -0.24727 609.483 2.35173 607.408 5.79573ZM621.056 79.0727C624.532 80.8697 627.023 85.2467 627.023 89.5557C627.023 96.4817 621.738 101.556 614.523 101.556C604.806 101.556 599.076 92.1557 603.536 83.5317C606.401 77.9907 614.82 75.8477 621.056 79.0727ZM1901.52 129.162C1880.48 131.317 1868.03 134.041 1858.52 138.568C1849.77 142.739 1844.61 147.608 1840.84 155.281C1837.85 161.354 1837.57 162.696 1837.64 170.989C1837.76 187.37 1843.86 197.536 1857.44 204.025C1868.34 209.233 1876.31 210.453 1907.02 211.621C1964.46 213.806 1964.52 213.811 1964.52 216.056C1964.52 217.979 1963.76 218.067 1944.52 218.356C1923.66 218.668 1904.84 217.556 1887.02 214.959C1876.57 213.434 1852.08 208.88 1849.75 208.026C1847.04 207.034 1846.05 209.808 1843 226.849C1840.56 240.537 1840.1 244.941 1840.99 246.019C1842.29 247.583 1847.17 248.761 1864.02 251.575C1904.13 258.272 1951.02 259.106 1977.83 253.599C2003.24 248.383 2014.21 235.997 2012.74 214.187C2011.95 202.418 2009.72 197.273 2002.02 189.465C1997.06 184.431 1994.11 182.346 1989.54 180.641C1975.04 175.234 1972.81 174.992 1920.81 173.201C1898.1 172.418 1886.73 171.663 1885.95 170.885C1883.04 167.977 1886.32 167.556 1911.88 167.556C1938.6 167.556 1956.38 168.554 1976.02 171.156C1982.35 171.994 1990.06 172.935 1993.16 173.247L1998.8 173.814L2000.34 166.935C2006.08 141.227 2006.37 139.286 2004.64 138.016C2002.72 136.618 1981.71 133.127 1962.12 130.957C1948.94 129.496 1909.63 128.331 1901.52 129.162ZM836.489 131.788C836.222 132.485 836.121 160.281 836.264 193.556L836.523 254.056H917.023H997.523L997.794 234.446C998.009 218.858 997.785 214.603 996.702 213.704C995.733 212.9 979.459 212.498 940.431 212.315L885.523 212.056L885.023 171.556L884.523 131.056L860.749 130.788C842.271 130.579 836.866 130.802 836.489 131.788ZM1008.49 131.788C1008.22 132.485 1008.12 160.281 1008.26 193.556L1008.52 254.056H1032.52H1056.52V192.556V131.056L1032.75 130.788C1014.27 130.579 1008.87 130.802 1008.49 131.788ZM1071.48 131.806C1071.22 132.494 1071.12 160.281 1071.26 193.556L1071.52 254.056H1095.52H1119.52L1120.02 223.556C1120.38 201.889 1120.85 193.056 1121.65 193.056C1122.27 193.056 1133.07 206.781 1145.65 223.556L1168.52 254.056L1192.02 254.338C1204.95 254.493 1216.42 254.4 1217.52 254.131C1218.7 253.844 1228.8 241.226 1241.98 223.599C1254.33 207.075 1265.01 193.556 1265.71 193.556C1266.72 193.556 1267.05 200.009 1267.26 223.806L1267.52 254.056H1291.52H1315.52V192.556V131.056L1287.48 130.791C1266.07 130.588 1259.06 130.824 1257.81 131.791C1256.9 132.487 1242.62 150.831 1226.06 172.556C1207.56 196.833 1195.32 212.056 1194.29 212.056C1193.26 212.056 1181.12 196.999 1162.85 173.056C1146.47 151.606 1132.12 133.269 1130.94 132.306C1129.01 130.731 1125.97 130.556 1100.38 130.556C1078.57 130.556 1071.85 130.847 1071.48 131.806ZM1393.69 133.806C1388.8 140.349 1321.02 251.556 1321.02 253.047C1321.02 254.403 1324.44 254.555 1349.73 254.321L1378.43 254.056L1384.02 244.556L1389.61 235.056L1426.38 234.794C1446.61 234.649 1463.84 234.912 1464.67 235.378C1465.5 235.843 1468.52 240.236 1471.38 245.14L1476.58 254.056H1505.55C1531.47 254.056 1534.51 253.888 1534.41 252.459C1534.26 250.329 1463.3 134.547 1460.77 132.306C1458.98 130.719 1455.89 130.556 1427.46 130.556H1396.12L1393.69 133.806ZM1554.5 131.589C1554.15 132.157 1554.85 134.295 1556.05 136.339C1563.5 149.001 1626.58 251.373 1627.82 252.806C1629.2 254.405 1632.11 254.556 1661.52 254.556C1690.95 254.556 1693.84 254.406 1695.19 252.806C1698.19 249.265 1768.3 134.222 1768.41 132.666C1768.51 131.228 1765.55 131.028 1740.64 130.79C1721.61 130.608 1712.35 130.87 1711.45 131.614C1710.73 132.214 1699.65 150.444 1686.83 172.125C1671.84 197.482 1662.96 211.547 1661.94 211.55C1660.92 211.554 1651.95 197.398 1636.65 171.647C1623.61 149.697 1612.25 131.472 1611.4 131.147C1608.59 130.068 1555.19 130.482 1554.5 131.589ZM1777.49 131.788C1777.22 132.485 1777.12 160.281 1777.26 193.556L1777.52 254.056H1801.52H1825.52V192.556V131.056L1801.75 130.788C1783.27 130.579 1777.87 130.802 1777.49 131.788ZM2082.69 133.806C2077.8 140.349 2010.02 251.556 2010.02 253.047C2010.02 254.403 2013.44 254.555 2038.73 254.321L2067.43 254.056L2073.02 244.556L2078.61 235.056L2115.38 234.794C2135.61 234.649 2152.84 234.912 2153.67 235.378C2154.5 235.843 2157.52 240.236 2160.38 245.14L2165.58 254.056H2194.55C2220.47 254.056 2223.51 253.888 2223.41 252.459C2223.26 250.329 2152.3 134.547 2149.77 132.306C2147.98 130.719 2144.89 130.556 2116.46 130.556H2085.12L2082.69 133.806ZM1436.69 184.971C1440.77 192.075 1443.88 198.487 1443.6 199.221C1442.81 201.274 1412.19 201.15 1411.4 199.091C1411.09 198.285 1412.39 195.023 1414.29 191.841C1416.2 188.659 1419.65 182.767 1421.97 178.748C1424.73 173.944 1426.71 171.545 1427.72 171.748C1428.57 171.917 1432.61 177.868 1436.69 184.971ZM2125.69 184.971C2129.77 192.075 2132.88 198.487 2132.6 199.221C2131.81 201.274 2101.19 201.15 2100.4 199.091C2100.09 198.285 2101.39 195.023 2103.29 191.841C2105.2 188.659 2108.65 182.767 2110.97 178.748C2113.73 173.944 2115.71 171.545 2116.72 171.748C2117.57 171.917 2121.61 177.868 2125.69 184.971ZM1551.67 319.806C1550.89 321.044 1548.59 324.756 1546.54 328.056C1544.49 331.356 1538.5 338.235 1533.24 343.343L1523.68 352.63L1528.1 357.17C1530.53 359.667 1533.31 362.139 1534.26 362.663C1536.89 364.1 1540.44 361.804 1549.76 352.648C1556.69 345.842 1558.52 344.558 1561.26 344.571C1565.82 344.593 1566.73 345.398 1570.37 352.657L1573.59 359.056L1579.69 358.827C1590.56 358.419 1593.28 356.003 1589.02 350.556C1587.95 349.181 1587.06 347.268 1587.04 346.306C1587.03 344.769 1588.1 344.556 1595.9 344.556C1604.66 344.556 1612.02 346.389 1612.02 348.569C1612.02 349.112 1610.55 349.556 1608.75 349.556C1606.41 349.556 1604.1 350.7 1600.56 353.622C1587.03 364.806 1564.31 374.367 1539.02 379.52C1533.25 380.697 1527.51 381.87 1526.27 382.127C1525.04 382.384 1524.02 383.22 1524.02 383.985C1524.02 386.288 1530.32 396.516 1532.08 397.076C1534.53 397.853 1545.72 395.056 1562.47 389.474C1570.69 386.734 1577.97 384.705 1578.64 384.963C1579.32 385.222 1580.01 386.474 1580.19 387.745L1580.52 390.056H1612.51H1644.5L1645.81 387.306C1647.43 383.929 1648.48 383.906 1657.21 387.057C1667.88 390.906 1687.9 395.694 1691.91 395.358C1695.12 395.089 1695.97 394.35 1699.76 388.556C1702.1 384.981 1704.02 381.514 1704.02 380.851C1704.02 380.189 1702.56 379.404 1700.77 379.106C1698.99 378.809 1693.25 377.857 1688.02 376.99C1675.1 374.846 1664.21 372.245 1652.42 368.487C1642.36 365.281 1627.07 358.779 1626.96 357.667C1626.93 357.331 1626.73 355.389 1626.52 353.351C1626.19 350.21 1626.59 349.259 1629.15 347.101C1631.75 344.916 1633.15 344.556 1639.03 344.556C1646.75 344.556 1647.16 344.885 1652.37 355.232C1653.81 358.079 1655.78 360.635 1656.75 360.912C1657.73 361.189 1661.45 360.862 1665.02 360.185C1672.73 358.725 1673.46 357.32 1669.54 351.398C1665.27 344.945 1665.84 344.646 1683.23 344.332L1698.52 344.056V337.556V331.056L1671.06 330.79C1655.95 330.643 1643.19 330.121 1642.7 329.63C1642.17 329.105 1642.53 327.506 1643.56 325.758C1644.53 324.119 1645.06 322.085 1644.73 321.237C1644.12 319.651 1637.92 318.294 1630.57 318.139C1626.76 318.059 1626.5 318.268 1623.71 323.556C1619.74 331.088 1613.12 339.755 1611.7 339.286C1611.05 339.073 1610.3 337.135 1610.02 334.978L1609.52 331.056L1589.55 330.784C1578.36 330.632 1569.15 330.085 1568.61 329.541C1567.98 328.913 1568.44 327.484 1569.91 325.494C1571.16 323.803 1571.96 321.848 1571.7 321.149C1571.25 319.993 1560 317.556 1555.1 317.556C1553.98 317.556 1552.44 318.568 1551.67 319.806ZM1164.85 319.306C1164.75 319.719 1164.64 327.706 1164.6 337.056L1164.52 354.056L1135.02 354.556L1105.52 355.056V363.056V371.056L1134.02 371.556L1162.52 372.056L1162.83 375.841C1163.2 380.273 1160.19 392.868 1156.69 401.529C1148.73 421.239 1134.04 435.081 1108.13 447.305L1096.62 452.734L1103.07 458.627C1106.62 461.869 1110.59 464.816 1111.9 465.178C1114.9 466.008 1126.84 460.388 1139.48 452.194C1150.58 445 1164.96 430.59 1170.61 420.994C1177.65 409.045 1183.21 392.659 1184.68 379.573C1185.02 376.539 1185.74 373.494 1186.28 372.806C1187.77 370.917 1233.88 371.012 1234.6 372.905C1235.48 375.178 1233.14 413.915 1231.41 425.831C1228.54 445.591 1225.35 448.355 1206.79 447.148C1201.14 446.781 1194.55 446.212 1192.13 445.884C1187.89 445.307 1187.76 445.371 1188.32 447.671C1190.12 455.131 1193.42 462.7 1195.31 463.712C1198.91 465.636 1226.45 465.265 1233.35 463.2C1240.78 460.976 1247.07 454.983 1249.35 447.966C1253.52 435.128 1256.07 409.402 1256.33 377.554L1256.52 355.056L1222.02 354.556L1187.52 354.056L1187.55 342.987C1187.57 336.292 1188.13 330.249 1188.98 327.696C1190.94 321.744 1189.69 320.82 1178 319.589C1166.49 318.377 1165.07 318.346 1164.85 319.306ZM1812.44 323.918C1812.15 324.667 1812.05 327.93 1812.22 331.168L1812.52 337.056L1825.32 337.336C1835.59 337.561 1838.22 337.912 1838.69 339.119C1839.38 340.929 1832.56 351.556 1830.7 351.556C1829.98 351.556 1828.07 350.166 1826.46 348.467C1822.02 343.8 1818.51 342.229 1815.76 343.688C1811.33 346.048 1808.02 348.961 1808.04 350.494C1808.04 351.353 1810.52 354.222 1813.54 356.869C1816.55 359.515 1819.02 362.523 1819.02 363.552C1819.02 366.577 1802.14 379.199 1799.47 378.173C1798.67 377.868 1798.02 376.592 1798.01 375.337C1797.97 370.273 1797.8 370.236 1773.43 370.143C1755.8 370.076 1750.37 370.354 1749.34 371.377C1747.69 373.028 1747.61 381.739 1749.22 383.356C1750.09 384.223 1757.11 384.556 1774.53 384.556H1798.64L1801.81 389.056C1805.43 394.19 1807.52 394.648 1812.71 391.442C1814.59 390.279 1816.44 389.641 1816.83 390.025C1817.21 390.408 1817.59 398.524 1817.66 408.06C1817.74 417.596 1818.11 425.883 1818.47 426.477C1818.84 427.07 1822.04 427.556 1825.58 427.556C1832.79 427.556 1833.91 428.87 1828.59 431.092C1823.85 433.075 1823.48 434.152 1826.29 437.849C1829.66 442.286 1831.83 446.817 1831.3 448.306C1830.98 449.209 1827.61 449.556 1819.14 449.556C1811.36 449.556 1807.02 449.959 1806.22 450.756C1805.56 451.416 1805.02 454.251 1805.02 457.056C1805.02 459.861 1805.56 462.696 1806.22 463.356C1807.13 464.26 1820.68 464.556 1861.1 464.556C1906.17 464.556 1914.97 464.329 1915.95 463.14C1916.65 462.305 1917 459.331 1916.82 455.89L1916.52 450.056L1900.77 449.781C1882.51 449.461 1882.52 449.471 1888.57 440.491C1890.52 437.595 1891.88 434.639 1891.61 433.922C1891.33 433.206 1889.51 431.953 1887.57 431.139C1885.62 430.324 1884.02 429.205 1884.02 428.651C1884.02 428.094 1887.27 427.512 1891.27 427.35L1898.52 427.056V408.056V389.056L1879.52 389.39C1851.56 389.882 1819.84 388.651 1820.22 387.088C1820.72 385.019 1834.11 374.236 1835 375.18C1835.46 375.662 1835.99 376.956 1836.19 378.056C1836.54 379.981 1837.34 380.056 1857.54 380.056H1878.52L1878.86 377.556C1879.04 376.181 1879.56 374.669 1880.02 374.195C1880.76 373.42 1889.22 379.629 1896.21 386.077C1897.69 387.44 1899.4 388.556 1900.01 388.556C1900.63 388.556 1902.78 389.681 1904.81 391.056C1906.83 392.431 1909.27 393.556 1910.22 393.556C1912.04 393.556 1920.02 382.52 1920.02 380.002C1920.02 379.225 1917.66 377.396 1914.77 375.936C1906.54 371.776 1899.02 366.702 1899.03 365.318C1899.05 363.955 1910.8 354.755 1915.9 352.119C1920.67 349.652 1919.94 347.256 1913.14 343.128C1909.91 341.164 1906.82 339.556 1906.27 339.556C1905.73 339.556 1902.09 342.693 1898.19 346.528C1889.91 354.658 1886.65 356.012 1883.91 352.449C1882.89 351.133 1882.06 349.549 1882.04 348.929C1882.03 348.309 1886.52 344.294 1892.02 340.007C1897.52 335.719 1902.02 331.604 1902.02 330.862C1902.02 329.36 1893.79 323.798 1890.25 322.901C1888.39 322.431 1886.86 323.539 1881.91 328.941C1878.39 332.777 1875.02 335.556 1873.89 335.556C1872.52 335.556 1871.24 334.071 1869.63 330.597C1865.63 321.961 1867.91 322.556 1838.87 322.556C1817.93 322.556 1812.86 322.817 1812.44 323.918ZM1747.43 325.925C1747.15 326.678 1747.05 329.716 1747.22 332.675L1747.52 338.056L1772.4 338.324C1789.91 338.512 1797.68 338.254 1798.65 337.451C1799.42 336.808 1800.02 334.439 1800.02 332.015C1800.02 324.058 1801.8 324.556 1773.38 324.556C1752.79 324.556 1747.86 324.816 1747.43 325.925ZM1331.45 326.677C1330.52 328.182 1330.54 416.404 1331.47 417.334C1331.86 417.731 1360.5 417.895 1395.1 417.697C1452.93 417.367 1458.05 417.472 1458.64 418.994C1459.56 421.397 1456.4 441.922 1454.56 445.477C1452.34 449.778 1449.96 450.682 1441.76 450.349C1433.62 450.019 1431.95 448.151 1438.02 446.187C1442.87 444.622 1442.91 442.234 1438.26 432.342C1433.2 421.56 1432.59 421.089 1425.65 422.53C1417.7 424.18 1417.48 424.826 1421.54 434.463C1423.46 439.001 1425.02 443.336 1425.02 444.095C1425.02 444.854 1426.11 446.506 1427.45 447.766C1428.78 449.025 1430.85 452.981 1432.04 456.556C1435.25 466.247 1435.7 466.556 1446.5 466.556C1465.37 466.556 1472.17 461.549 1476.39 444.532C1478.33 436.703 1481.29 412.002 1480.84 407.361L1480.52 404.056L1445.52 403.556L1410.52 403.056V397.556V392.056L1434.24 392.04C1449.98 392.03 1458.32 391.658 1459.04 390.936C1459.66 390.32 1460 387.288 1459.83 383.952L1459.52 378.056L1435.02 377.556L1410.52 377.056V372.056V367.056L1435.02 366.556L1459.52 366.056V359.556V353.056L1435.02 352.556L1410.52 352.056V346.556V341.056L1440.52 340.556L1470.52 340.056V333.056V326.056L1401.34 325.799C1350.55 325.611 1331.96 325.844 1331.45 326.677ZM1389.52 346.556V352.056H1370.52H1351.52L1351.21 347.692C1350.67 340.169 1349.79 340.48 1370.75 340.784L1389.52 341.056V346.556ZM1861.6 349.306C1863.12 351.919 1866.13 356.398 1868.28 359.261C1870.43 362.124 1871.91 364.937 1871.55 365.511C1870.69 366.899 1844.37 366.924 1843.51 365.538C1843.17 364.979 1844.19 362.841 1845.79 360.788C1847.39 358.736 1850.59 354.244 1852.9 350.806C1855.21 347.369 1857.49 344.556 1857.96 344.556C1858.44 344.556 1860.08 346.693 1861.6 349.306ZM1740.24 347.742C1738.62 349.357 1738.65 360.029 1740.27 361.255C1742.1 362.634 1800.64 362.342 1802.03 360.947C1802.67 360.313 1803 357.165 1802.82 353.454L1802.52 347.056L1771.99 346.792C1749.07 346.594 1741.15 346.831 1740.24 347.742ZM1619.37 369.255C1626.41 373.491 1629.02 375.506 1629.02 376.711C1629.02 377.176 1621.6 377.556 1612.52 377.556C1602.68 377.556 1596.02 377.17 1596.02 376.599C1596.02 375.613 1610.86 365.612 1612.37 365.576C1612.84 365.565 1615.99 367.221 1619.37 369.255ZM1389.52 372.056V377.056H1370.52H1351.52L1351.21 373.201C1350.64 366.252 1349.94 366.482 1370.75 366.784L1389.52 367.056V372.056ZM1389.52 397.556V403.056H1370.52H1351.52L1351.21 398.692C1350.67 391.169 1349.79 391.48 1370.75 391.784L1389.52 392.056V397.556ZM1748.98 393.002C1747.61 394.371 1747.8 403.932 1749.22 405.356C1750.92 407.058 1795.12 407.058 1796.82 405.356C1798.43 403.751 1798.39 393.902 1796.77 392.894C1794.95 391.756 1750.12 391.858 1748.98 393.002ZM1546.69 397.223C1546.32 397.589 1546.02 404.734 1546.02 413.1C1546.02 425.219 1546.32 428.558 1547.48 429.523C1548.44 430.313 1551.65 430.623 1556.72 430.411C1566.5 430.003 1567.09 431.299 1560.32 438.25C1554.84 443.876 1545 449.709 1535.22 453.125C1531.54 454.413 1528.52 455.87 1528.52 456.364C1528.52 457.535 1541.02 467.564 1542.44 467.529C1544.97 467.466 1557.41 461.45 1563.84 457.178C1567.66 454.636 1571.05 452.556 1571.36 452.556C1571.67 452.556 1574.76 454.525 1578.22 456.931C1581.69 459.338 1586.47 462.29 1588.85 463.493C1592.87 465.522 1593.36 465.566 1595.59 464.104C1596.91 463.237 1598.73 461.409 1599.62 460.042C1600.52 458.675 1601.94 457.556 1602.79 457.556C1603.64 457.556 1606.71 459.806 1609.62 462.556C1612.52 465.306 1615.8 467.556 1616.89 467.556C1619.78 467.556 1631.61 461.167 1638.27 456.01C1641.44 453.56 1644.45 451.556 1644.97 451.556C1645.49 451.556 1650.55 453.992 1656.22 456.969C1667.53 462.913 1682.22 467.974 1685.66 467.112C1688.04 466.515 1696.02 457.141 1696.02 454.944C1696.02 454.202 1694.79 453.319 1693.27 452.983C1673.4 448.569 1657.02 442.109 1657.02 438.68C1657.02 437.577 1657.5 436.379 1658.08 436.02C1658.66 435.66 1659 434.17 1658.83 432.71L1658.52 430.056L1667.78 430.422C1674.15 430.674 1677.5 430.402 1678.53 429.55C1680.48 427.933 1680.74 399.671 1678.82 397.756C1677.06 395.998 1621.66 396.046 1620.31 397.806C1619.15 399.305 1619.18 427.52 1620.33 429.306C1620.87 430.133 1623.83 430.556 1629.08 430.556C1636.29 430.556 1637.02 430.736 1637.02 432.508C1637.02 436.84 1622.09 448.763 1611.26 453.083C1607.72 454.494 1606.73 454.56 1605.42 453.473C1604.55 452.752 1599.27 449.889 1593.68 447.11C1582.74 441.664 1581.58 440.204 1584.89 435.993C1586 434.582 1586.66 432.782 1586.36 431.992C1585.91 430.815 1587.32 430.553 1594.17 430.541C1598.76 430.532 1603.13 430.139 1603.88 429.666C1604.92 429.006 1605.24 425.324 1605.25 413.784C1605.26 405.522 1604.96 398.265 1604.59 397.659C1603.83 396.444 1547.89 396.022 1546.69 397.223ZM1879.52 408.056V414.056H1858.02H1836.52L1836.21 409.183C1835.7 401.043 1834.38 401.483 1858.25 401.786L1879.52 402.056V408.056ZM1586.52 413.556V418.056H1575.52H1564.52L1564.2 414.711C1563.62 408.593 1563.88 408.459 1575.75 408.772L1586.52 409.056V413.556ZM1660.52 413.556V418.056H1649.52H1638.52L1638.2 414.711C1637.62 408.593 1637.88 408.459 1649.75 408.772L1660.52 409.056V413.556ZM1746.69 415.223C1746.32 415.589 1746.02 427.234 1746.02 441.1C1746.02 461.554 1746.29 466.532 1747.43 467.479C1748.3 468.203 1751.63 468.535 1756.18 468.352L1763.52 468.056L1764.02 464.056L1764.52 460.056L1772.28 459.764C1779.95 459.475 1780.05 459.504 1781.09 462.243C1782.54 466.046 1783.6 466.523 1790.65 466.541C1795.07 466.552 1797.15 466.108 1798.11 464.952C1799.14 463.706 1799.41 458.132 1799.29 439.955C1799.21 427.088 1798.86 416.11 1798.52 415.559C1797.83 414.436 1747.8 414.112 1746.69 415.223ZM1329.1 423.964C1328.41 424.789 1326.33 428.654 1324.46 432.553C1320.76 440.267 1316.15 447.521 1312.25 451.746C1310.83 453.285 1310.01 455.088 1310.35 455.959C1311.11 457.954 1322.26 463.556 1325.46 463.556C1327.3 463.556 1329 462.18 1331.92 458.306C1336.33 452.452 1342.8 440.283 1344.93 433.838C1346.71 428.433 1345.7 427.096 1338.14 424.91C1335.05 424.016 1332.03 423.1 1331.43 422.875C1330.83 422.649 1329.78 423.14 1329.1 423.964ZM1393.21 425.761C1390.28 426.294 1387.67 427.316 1387.39 428.034C1387.12 428.752 1388.02 433.1 1389.4 437.697C1390.78 442.295 1392.21 447.727 1392.57 449.77C1393.58 455.458 1394.94 456.085 1402.7 454.451C1406.58 453.633 1409.75 452.367 1410.36 451.392C1411.62 449.379 1405.93 430.985 1402.83 427.041C1400.7 424.334 1400.9 424.36 1393.21 425.761ZM1357.02 427.46C1354.95 428.045 1354.54 428.754 1354.61 431.611C1354.77 437.669 1358.13 460.023 1359.03 460.938C1359.89 461.82 1374.29 460.124 1376.26 458.91C1378.26 457.675 1373.67 431.245 1370.87 427.874C1369.71 426.469 1361.42 426.221 1357.02 427.46ZM1872.82 429.74C1873.22 431.797 1867.06 445.382 1864.63 447.806C1863.22 449.211 1861.12 449.556 1853.95 449.556C1845.1 449.556 1843.06 448.674 1847.02 446.556C1848.12 445.967 1849.02 444.465 1849.02 443.217C1849.02 440.921 1844.14 432.366 1842.12 431.116C1841.52 430.743 1841.02 429.778 1841.02 428.972C1841.02 427.734 1843.47 427.548 1856.76 427.781C1870.59 428.023 1872.54 428.261 1872.82 429.74ZM1780.52 437.056V445.056H1772.52H1764.52L1764.22 438.155C1763.8 428.291 1763.68 428.422 1772.76 428.764L1780.52 429.056V437.056Z" fill="black"/>
</svg>
