<svg xmlns="http://www.w3.org/2000/svg" data-name="Layer 1" viewBox="0 0 128 128" id="lost"><path d="M84.54639,23.24042a17.11448,17.11448,0,0,1-4.30579,4.0141l6.85168-.02295a1.98192,1.98192,0,0,0,.3399-.03027l12.47-2.19629a2.00023,2.00023,0,0,0,.98749-3.46l-13.204-11.8208a16.99445,16.99445,0,0,1,.32373,3.27588,16.99531,16.99531,0,0,1-.16455,2.236l7.30939,6.54327-8.24658,1.45313Z"></path><path d="M115.56,29.44a8.26709,8.26709,0,0,0,.32-4.07,8.07191,8.07191,0,0,0-1.12-2.87,9.92946,9.92946,0,0,0-.71-.96c-.48-.55-18.42-18.63-18.79-19.01a6.92552,6.92552,0,0,0-10.8.12,16.88174,16.88174,0,0,1,2.38,4.2A3.23163,3.23163,0,0,1,89.9,4C91.46,4,109.91,23.01,110.57,23.67a4.52633,4.52633,0,0,1,1.39,2.37,4.23185,4.23185,0,0,1-.18,2.09,4.84511,4.84511,0,0,1-3.61,3.14L87.29,35.35a1.98475,1.98475,0,0,0-1.61,1.96V76H55.86V39.51A2.00375,2.00375,0,0,0,52.87,37.77L39.34,45.46a1.97807,1.97807,0,0,0-.93005,2.3L42.05,60.1a4.02116,4.02116,0,0,1-2.09,4.86,3.20829,3.20829,0,0,1-2.66-.05,3.77723,3.77723,0,0,1-1.98-2.37L30.17,45.38a4.72255,4.72255,0,0,1,2.28-5.45L51.82,29.35A17.90349,17.90349,0,0,1,60,27.32h1.87a17.28356,17.28356,0,0,1-4.24-3.85,22.0577,22.0577,0,0,0-7.69,2.35L30.57,36.4a8.76575,8.76575,0,0,0-4.25,10.08l5.16,17.21a7.80888,7.80888,0,0,0,4.12,4.84,7.177,7.177,0,0,0,5.93005.11,7.98328,7.98328,0,0,0,4.36-9.67l-3.2-10.82,9.17-5.21V78a1.99947,1.99947,0,0,0,2,2H54v41a7.005,7.005,0,0,0,14.01,0V80h5v41a7,7,0,0,0,14,0V80h.67a2.00587,2.00587,0,0,0,2-2V38.96S108.95,35.2,108.96,35.19A8.86794,8.86794,0,0,0,115.56,29.44ZM64.01,121A3.005,3.005,0,0,1,58,121V80h6.01Zm19,0a3,3,0,0,1-6,0V80h6Z"></path><path d="M58 13A13.005 13.005 0 1 0 71.01 0 13.021 13.021 0 0 0 58 13zM21.31683 11.31946a2.00011 2.00011 0 0 0 .58606 1.41406l8.68219 8.68066a2 2 0 0 0 2.82861-2.82812L25.925 11.09875a6.873 6.873 0 0 0 .72284-3.56836A7.98165 7.98165 0 0 0 24.28027 2.38 7.98427 7.98427 0 0 0 19.129.01282a6.6817 6.6817 0 0 0-5.2041 1.916 7.13989 7.13989 0 0 0-.80969 8.74023 2.00047 2.00047 0 0 0 3.4342-2.05273A3.16034 3.16034 0 0 1 16.75452 4.757a2.75161 2.75161 0 0 1 2.13513-.751 3.9875 3.9875 0 0 1 2.562 1.20215A3.98633 3.98633 0 0 1 22.654 7.76965a2.72591 2.72591 0 0 1-.7511 2.13477A2.00238 2.00238 0 0 0 21.31683 11.31946zM40.02039 26.00012a1.99967 1.99967 0 0 0-2.00037-2h-.00977a2 2 0 1 0 2.01013 2z"></path></svg>